<svg width="36" height="36" viewBox="0 0 24 24" xmlns="http://www.w3.org/2000/svg"><rect x="0" y="0" width="24" height="24" rx="8" fill="none"/><svg xmlns="http://www.w3.org/2000/svg" viewBox="0 0 24 24" fill="#000000" x="0" y="0" width="24" height="24"><path fill="#000000" d="M10.77 18.3a7.53 7.53 0 1 1 7.53-7.53a7.53 7.53 0 0 1-7.53 7.53Zm0-13.55a6 6 0 1 0 6 6a6 6 0 0 0-6-6Z"/><path fill="#000000" d="M20 20.75a.74.74 0 0 1-.53-.22l-4.13-4.13a.75.75 0 0 1 1.06-1.06l4.13 4.13a.75.75 0 0 1 0 1.06a.74.74 0 0 1-.53.22Z"/></svg></svg>